<svg id="visual" viewBox="0 0 900 600" width="900" height="600" xmlns="http://www.w3.org/2000/svg" xmlns:xlink="http://www.w3.org/1999/xlink" version="1.1"><rect x="0" y="0" width="900" height="600" fill="#002731"></rect><path d="M0 231L11.5 235.3C23 239.7 46 248.3 69 281.8C92 315.3 115 373.7 138.2 374.7C161.3 375.7 184.7 319.3 207.8 306.2C231 293 254 323 277 310.7C300 298.3 323 243.7 346 230.3C369 217 392 245 415.2 265.7C438.3 286.3 461.7 299.7 484.8 298.7C508 297.7 531 282.3 554 247C577 211.7 600 156.3 623 141.7C646 127 669 153 692.2 208.3C715.3 263.7 738.7 348.3 761.8 372.7C785 397 808 361 831 358.2C854 355.3 877 385.7 888.5 400.8L900 416L900 601L888.5 601C877 601 854 601 831 601C808 601 785 601 761.8 601C738.7 601 715.3 601 692.2 601C669 601 646 601 623 601C600 601 577 601 554 601C531 601 508 601 484.8 601C461.7 601 438.3 601 415.2 601C392 601 369 601 346 601C323 601 300 601 277 601C254 601 231 601 207.8 601C184.7 601 161.3 601 138.2 601C115 601 92 601 69 601C46 601 23 601 11.5 601L0 601Z" fill="#307181" stroke-linecap="round" stroke-linejoin="miter"></path></svg>