<svg width="1920" height="1080" viewBox="0 0 1920 1080" xmlns="http://www.w3.org/2000/svg"><rect width="1920" height="1080" fill="#002731"/><path d="M1920,1080C1600.5,1146.3333333333333,275.8333333333333,1095.3333333333333,0,1080C-275.8333333333333,1064.6666666666667,174.16666666666669,1030.6666666666667,265,988C355.8333333333333,945.3333333333334,452.3333333333333,833.8333333333334,545,824C637.6666666666666,814.1666666666666,730.5,976.3333333333334,821,929C911.5,881.6666666666666,997.6666666666666,550.1666666666666,1088,540C1178.3333333333333,529.8333333333334,1271.5,799.6666666666666,1363,868C1454.5,936.3333333333334,1544.6666666666667,981,1637,950C1729.3333333333333,919,1869.8333333333333,660.3333333333334,1917,682C1964.1666666666667,703.6666666666666,2239.5,1013.6666666666666,1920,1080C1600.5,1146.3333333333333,275.8333333333333,1095.3333333333333,0,1080" fill="#00ffff"/></svg>